<?xml version="1.0" encoding="UTF-8" standalone="no"?>
<!-- Created with Inkscape (http://www.inkscape.org/) -->

<svg
   width="58"
   version="1.1"
   height="52.000111"
   id="svg2"
   inkscape:version="1.2.2 (b0a8486541, 2022-12-01)"
   sodipodi:docname="system-file-manager.svg"
   xml:space="preserve"
   xmlns:inkscape="http://www.inkscape.org/namespaces/inkscape"
   xmlns:sodipodi="http://sodipodi.sourceforge.net/DTD/sodipodi-0.dtd"
   xmlns:xlink="http://www.w3.org/1999/xlink"
   xmlns="http://www.w3.org/2000/svg"
   xmlns:svg="http://www.w3.org/2000/svg"
   xmlns:rdf="http://www.w3.org/1999/02/22-rdf-syntax-ns#"
   xmlns:cc="http://creativecommons.org/ns#"
   xmlns:dc="http://purl.org/dc/elements/1.1/"><sodipodi:namedview
     pagecolor="#ffffff"
     bordercolor="#666666"
     borderopacity="1"
     objecttolerance="10"
     gridtolerance="10"
     guidetolerance="10"
     inkscape:pageopacity="0"
     inkscape:pageshadow="2"
     inkscape:window-width="1366"
     inkscape:window-height="741"
     id="namedview17"
     showgrid="false"
     inkscape:snap-bbox="true"
     inkscape:bbox-nodes="true"
     inkscape:zoom="10.903823"
     inkscape:cx="29.026516"
     inkscape:cy="26.000055"
     inkscape:current-layer="layer1"
     showguides="false"
     inkscape:guide-bbox="true"
     inkscape:object-nodes="true"
     inkscape:pagecheckerboard="0"
     inkscape:window-x="0"
     inkscape:window-y="27"
     inkscape:window-maximized="1"
     inkscape:showpageshadow="2"
     inkscape:deskcolor="#d1d1d1"><inkscape:grid
       type="xygrid"
       id="grid4145" /><sodipodi:guide
       position="22.99999,34"
       orientation="0.70710678,0.70710678"
       id="guide4381"
       inkscape:locked="false" /><sodipodi:guide
       position="-1.001358e-05,29"
       orientation="0.70710678,0.70710678"
       id="guide4401"
       inkscape:locked="false" /></sodipodi:namedview><defs
     id="defs5455"><linearGradient
       inkscape:collect="always"
       id="linearGradient82546"><stop
         style="stop-color:#000000;stop-opacity:1"
         offset="0"
         id="stop82542" /><stop
         style="stop-color:#000000;stop-opacity:0;"
         offset="1"
         id="stop82544" /></linearGradient><linearGradient
       inkscape:collect="always"
       id="linearGradient39400"><stop
         style="stop-color:#000000;stop-opacity:1"
         offset="0"
         id="stop39396" /><stop
         style="stop-color:#147cdc;stop-opacity:0;"
         offset="1"
         id="stop39398" /></linearGradient><linearGradient
       inkscape:collect="always"
       id="linearGradient919"><stop
         style="stop-color:#ffffff;stop-opacity:1;"
         offset="0"
         id="stop915" /><stop
         style="stop-color:#ffffff;stop-opacity:0;"
         offset="1"
         id="stop917" /></linearGradient><linearGradient
       inkscape:collect="always"
       id="linearGradient4393"><stop
         style="stop-color:#000000;stop-opacity:1;"
         offset="0"
         id="stop4395" /><stop
         style="stop-color:#000000;stop-opacity:0;"
         offset="1"
         id="stop4397" /></linearGradient><linearGradient
       id="linearGradient4227"
       inkscape:collect="always"><stop
         id="stop4229"
         offset="0"
         style="stop-color:#f5f5f5;stop-opacity:1" /><stop
         id="stop4231"
         offset="1"
         style="stop-color:#f9f9f9;stop-opacity:1" /></linearGradient><linearGradient
       id="linearGradient4274"
       inkscape:collect="always"><stop
         id="stop4276"
         offset="0"
         style="stop-color:#ffffff;stop-opacity:1;" /><stop
         id="stop4278"
         offset="1"
         style="stop-color:#ffffff;stop-opacity:0.48760331" /></linearGradient><linearGradient
       inkscape:collect="always"
       xlink:href="#linearGradient919"
       id="linearGradient921"
       x1="339.66766"
       y1="472.30182"
       x2="357.40253"
       y2="502.19492"
       gradientUnits="userSpaceOnUse"
       gradientTransform="translate(66.903794,39.496194)" /><linearGradient
       inkscape:collect="always"
       xlink:href="#linearGradient39400"
       id="linearGradient39402"
       x1="376.81827"
       y1="549.95038"
       x2="337.81827"
       y2="519.95038"
       gradientUnits="userSpaceOnUse"
       gradientTransform="translate(68.75316,-8.152382)" /><linearGradient
       inkscape:collect="always"
       xlink:href="#linearGradient4393"
       id="linearGradient49568"
       gradientUnits="userSpaceOnUse"
       gradientTransform="translate(-22.999995,4.999998)"
       x1="443.57144"
       y1="510.798"
       x2="443.57144"
       y2="526.79797" /><linearGradient
       inkscape:collect="always"
       xlink:href="#linearGradient4274"
       id="linearGradient76299"
       gradientUnits="userSpaceOnUse"
       gradientTransform="translate(-3e-6,3)"
       x1="390.57144"
       y1="498.298"
       x2="442.57144"
       y2="498.298" /><linearGradient
       inkscape:collect="always"
       xlink:href="#linearGradient4227"
       id="linearGradient76301"
       gradientUnits="userSpaceOnUse"
       gradientTransform="translate(-3e-6,1)"
       x1="396.57144"
       y1="498.798"
       x2="426.57144"
       y2="511.798" /><linearGradient
       inkscape:collect="always"
       xlink:href="#linearGradient82546"
       id="linearGradient82548"
       x1="357.48947"
       y1="494.85211"
       x2="384.41882"
       y2="541.49512"
       gradientUnits="userSpaceOnUse"
       gradientTransform="translate(58.00001)" /><style
       id="current-color-scheme"
       type="text/css">      .ColorScheme-Highlight {
        color:#3593e6;
      }</style></defs><metadata
     id="metadata5458"><rdf:RDF><cc:Work
         rdf:about=""><dc:format>image/svg+xml</dc:format><dc:type
           rdf:resource="http://purl.org/dc/dcmitype/StillImage" /></cc:Work></rdf:RDF></metadata><g
     inkscape:label="Capa 1"
     inkscape:groupmode="layer"
     id="layer1"
     transform="translate(-387.57144,-489.79789)"
     style="display:inline"><path
       inkscape:connector-curvature="0"
       style="fill:currentColor"
       id="path76317"
       d="m 388.57143,489.79812 v 5 22 c 0,0.55373 0.446,1 1,1 h 54 c 0.55399,0 1,-0.44627 1,-1 v -21.99023 c 0,-0.003 -0.002,-0.006 -0.002,-0.01 h 0.002 v -1 h -28 l -4,-4 h -24 z"
       class="ColorScheme-Highlight" /><path
       inkscape:connector-curvature="0"
       style="opacity:0.35;fill:url(#linearGradient82548);fill-opacity:1"
       id="path76289"
       d="m 388.57143,489.79812 v 5 22 c 0,0.55373 0.446,1 1,1 h 54 c 0.55399,0 1,-0.44627 1,-1 v -21.99023 c 0,-0.003 -0.002,-0.006 -0.002,-0.01 h 0.002 v -1 h -28 l -4,-4 h -24 z" /><rect
       ry="0.99999583"
       rx="1.0000117"
       y="498.798"
       x="390.57144"
       height="14.999973"
       width="52.000011"
       id="rect76291"
       style="color:#000000;clip-rule:nonzero;display:inline;overflow:visible;visibility:visible;isolation:auto;mix-blend-mode:normal;color-interpolation:sRGB;color-interpolation-filters:linearRGB;solid-color:#000000;solid-opacity:1;fill:url(#linearGradient76301);fill-opacity:1;fill-rule:nonzero;stroke:none;stroke-width:1;stroke-linecap:butt;stroke-linejoin:miter;stroke-miterlimit:4;stroke-dasharray:none;stroke-dashoffset:0;stroke-opacity:1;marker:none;color-rendering:auto;image-rendering:auto;shape-rendering:auto;text-rendering:auto;enable-background:accumulate" /><path
       inkscape:connector-curvature="0"
       style="opacity:0.3;fill:#ffffff;fill-opacity:1;fill-rule:evenodd"
       id="path76293"
       d="m 387.57144,511.798 v 1 h 19.99999 l 3,-5 -4,4 z" /><path
       inkscape:connector-curvature="0"
       style="opacity:0.3;fill:#ffffff;fill-opacity:1;fill-rule:evenodd"
       id="path76295"
       d="m 412.57143,489.798 3,5 h 2 27 v -1 h -27 -1 z" /><path
       inkscape:connector-curvature="0"
       id="path76297"
       d="m 391.57143,498.798 c -0.55401,0 -1,0.446 -1,1 v 1 c 0,-0.554 0.44599,-1 1,-1 h 50 c 0.55401,0 1,0.446 1,1 v -1 c 0,-0.554 -0.44599,-1 -1,-1 z"
       style="color:#000000;clip-rule:nonzero;display:inline;overflow:visible;visibility:visible;opacity:0.85;isolation:auto;mix-blend-mode:normal;color-interpolation:sRGB;color-interpolation-filters:linearRGB;solid-color:#000000;solid-opacity:1;fill:url(#linearGradient76299);fill-opacity:1;fill-rule:nonzero;stroke:none;stroke-width:1;stroke-linecap:butt;stroke-linejoin:miter;stroke-miterlimit:4;stroke-dasharray:none;stroke-dashoffset:0;stroke-opacity:1;marker:none;color-rendering:auto;image-rendering:auto;shape-rendering:auto;text-rendering:auto;enable-background:accumulate" /><path
       style="display:inline;fill:currentColor"
       d="m 410.57144,507.79802 -4,4 h -19 v 1 h 0.002 c -5e-5,0.004 -0.002,0.008 -0.002,0.0117 v 26.98828 1 c 0,0.554 0.44599,1 1,1 h 56 c 0.55401,0 1,-0.446 1,-1 v -1 -26.98828 -0.0117 -5 z"
       id="path889"
       class="ColorScheme-Highlight" /><path
       style="display:inline;opacity:0.1;fill:url(#linearGradient921);fill-opacity:1"
       d="m 410.57144,507.79802 -4,4 h -19 v 1 h 0.002 c -5e-5,0.004 -0.002,0.008 -0.002,0.0117 v 26.98828 1 c 0,0.554 0.44599,1 1,1 h 56 c 0.55401,0 1,-0.446 1,-1 v -1 -26.98828 -0.0117 -5 z"
       id="path893" /><path
       style="display:inline;opacity:0.3;fill:url(#linearGradient39402);fill-opacity:1"
       d="m 410.57144,507.79802 -4,4 h -19 v 1 h 0.002 c -5e-5,0.004 -0.002,0.008 -0.002,0.0117 v 26.98828 1 c 0,0.554 0.44599,1 1,1 h 56 c 0.55401,0 1,-0.446 1,-1 v -1 -26.98828 -0.0117 -5 z"
       id="path35453" /><path
       style="display:inline;opacity:0.109;fill:url(#linearGradient49568);fill-opacity:1;fill-rule:evenodd;stroke:none;stroke-width:1px;stroke-linecap:butt;stroke-linejoin:miter;stroke-opacity:1"
       d="m 387.57144,512.798 h 20 l 3,-5 h 35 v 33 h -30 z"
       id="path49566"
       inkscape:connector-curvature="0"
       sodipodi:nodetypes="ccccccc" /><path
       inkscape:connector-curvature="0"
       style="display:inline;opacity:0.3;fill:#ffffff;fill-opacity:1;fill-rule:evenodd"
       id="path49671"
       d="m 387.57145,511.79802 v 1 h 19.99999 l 3,-5 -4,4 z" /><path
       style="color:#000000;clip-rule:nonzero;display:inline;overflow:visible;visibility:visible;opacity:0.3;isolation:auto;mix-blend-mode:normal;color-interpolation:sRGB;color-interpolation-filters:linearRGB;solid-color:#000000;solid-opacity:1;fill:#000000;fill-opacity:1;fill-rule:nonzero;stroke:none;stroke-width:1;stroke-linecap:butt;stroke-linejoin:miter;stroke-miterlimit:4;stroke-dasharray:none;stroke-dashoffset:0;stroke-opacity:1;marker:none;color-rendering:auto;image-rendering:auto;shape-rendering:auto;text-rendering:auto;enable-background:accumulate"
       d="m 388.57144,541.798 c -0.55401,0 -1,-0.446 -1,-1 v -1 c 0,0.554 0.44599,1 1,1 h 56 c 0.55401,0 1,-0.446 1,-1 v 1 c 0,0.554 -0.44599,1 -1,1 z"
       id="path49673"
       inkscape:connector-curvature="0"
       sodipodi:nodetypes="sscsscsss" /><path
       style="display:none;fill:#000000;stroke-width:0.0954258"
       d="m 417.2292,541.04419 c -4.49962,-0.24046 -8.73348,-1.46099 -12.08561,-3.48402 -5.74329,-3.46612 -8.86959,-8.81161 -8.39985,-14.36254 0.48761,-5.76233 4.8138,-10.90089 11.54493,-13.7128 3.38175,-1.41271 7.8069,-2.13458 11.69287,-1.90744 10.32475,0.6035 18.39485,6.40309 19.99234,14.36753 0.24531,1.2229 0.24574,3.54354 8.8e-4,4.74311 -1.00111,4.90503 -4.51756,9.10473 -9.83743,11.74883 -0.84927,0.42212 -3.05947,1.26611 -4.20193,1.60455 -1.03202,0.30573 -3.01615,0.68674 -4.34869,0.83509 -1.22734,0.13662 -3.38497,0.21965 -4.35751,0.16769 z m 3.97129,-0.8295 c 6.82094,-0.68905 12.80521,-3.98509 15.86356,-8.73739 0.91494,-1.42167 1.53313,-2.86888 1.92118,-4.49751 0.27298,-1.14561 0.28635,-1.32057 0.23115,-3.02247 -0.0587,-1.80818 -0.25113,-2.85882 -0.76796,-4.19193 -0.46608,-1.2022 -1.5007,-2.93509 -2.47561,-4.14641 -1.9074,-2.36996 -4.83752,-4.40432 -8.24085,-5.72151 -4.85531,-1.87917 -10.68417,-2.17323 -15.99746,-0.80705 -3.14858,0.80957 -5.75659,2.10479 -8.30157,4.12282 -4.39235,3.48289 -6.45547,8.2468 -5.67394,13.10164 0.76624,4.7601 4.4614,9.17613 9.76647,11.67179 2.36769,1.11382 5.1534,1.89873 7.74119,2.18116 0.44974,0.0491 0.94038,0.10313 1.0903,0.12009 0.75018,0.0848 3.72362,0.0399 4.84354,-0.0732 z m -3.13633,-0.18186 c -0.0395,-0.0304 -0.0717,-0.12864 -0.0717,-0.21831 0,-0.0897 -0.0816,-0.42336 -0.1812,-0.74156 -0.17133,-0.54703 -0.17076,-0.58742 0.0106,-0.74191 0.20043,-0.17068 0.15214,-0.34202 -0.0964,-0.34202 -0.28027,0 -0.62327,-0.28629 -0.54099,-0.45153 0.0656,-0.13167 0.15414,-0.14792 0.56809,-0.1042 0.47074,0.0498 0.78499,0.17078 0.78499,0.30239 0,0.0342 -0.14908,0.20675 -0.3313,0.38344 -0.26759,0.25948 -0.3178,0.37078 -0.26108,0.57871 0.12188,0.44696 0.2363,0.44289 0.81107,-0.0289 0.57999,-0.47607 0.64071,-0.59783 0.38098,-0.76394 -0.21953,-0.14041 -0.20595,-0.28047 0.0441,-0.45489 0.19707,-0.13745 0.23049,-0.13588 0.65418,0.0306 0.59955,0.23571 0.59408,0.44951 -0.0169,0.66001 -0.5811,0.20021 -1.6437,1.05082 -1.56939,1.2563 0.0291,0.0805 0.0824,0.22605 0.11855,0.32351 0.0663,0.17903 -0.16625,0.41811 -0.30368,0.31221 z m -1.53178,-2.97567 c -6.17658,-0.58637 -11.33957,-3.69299 -13.67479,-8.22821 -0.62551,-1.21481 -0.92337,-2.47571 -0.97751,-4.13821 -0.0818,-2.51332 0.43483,-4.30397 1.83197,-6.34914 3.01849,-4.41856 9.13118,-7.11994 15.55531,-6.87435 2.40468,0.0919 4.31825,0.48527 6.62978,1.3628 5.23255,1.98644 8.67846,5.95022 9.07981,10.4444 0.26662,2.98552 -0.61303,5.66938 -2.62447,8.00742 -1.4088,1.63752 -2.75231,2.68852 -4.76537,3.7278 -1.75235,0.90471 -4.12003,1.64365 -6.17681,1.92775 -1.20116,0.16592 -3.73608,0.22814 -4.87792,0.11974 z m 0.75283,-2.73332 c -0.4575,-1.10347 -1.23694,-2.95156 -1.73212,-4.10687 l -0.90028,-2.10056 -5.49897,-0.0568 c -3.02443,-0.0312 -5.53919,-0.0268 -5.58835,0.0101 -0.12215,0.0915 0.43219,1.16514 1.05939,2.05184 1.50922,2.13362 4.02507,3.97436 7.00222,5.12322 0.92346,0.35635 3.07878,0.87196 4.23922,1.01413 1.25701,0.15399 2.03298,0.19839 2.16115,0.12363 0.0493,-0.0287 -0.28476,-0.95509 -0.74226,-2.05858 z m 3.70555,1.93284 c 1.37381,-0.15637 3.7482,-0.76152 4.92123,-1.25428 2.86146,-1.20201 5.23632,-3.12138 6.64881,-5.37359 0.37677,-0.60076 0.71734,-1.19626 0.75681,-1.32334 l 0.0717,-0.23107 h -5.61745 -5.61744 l -0.23427,0.56715 c -0.63496,1.5372 -2.87248,6.8407 -3.05484,7.24076 -0.11432,0.25078 -0.18441,0.48518 -0.15576,0.5209 0.0594,0.074 0.71166,0.0321 2.28113,-0.14653 z m -1.71485,-2.51078 c 0.97278,-2.25655 2.31452,-5.54365 2.31452,-5.67028 0,-0.0537 -0.0824,-0.0854 -0.18295,-0.0704 -0.13117,0.0195 -0.2336,0.20549 -0.36195,0.65734 -0.0985,0.34658 -0.31053,0.87891 -0.47125,1.18291 -0.16072,0.30399 -0.29241,0.62539 -0.29262,0.71418 -8.8e-4,0.27178 -0.39455,0.68194 -0.69774,0.72661 -0.3503,0.0516 -0.35126,0.0256 -0.0105,-0.2864 0.24162,-0.22127 0.32545,-0.39471 0.28622,-0.59215 -0.007,-0.0338 0.0912,-0.26059 0.21756,-0.50413 0.41675,-0.8033 0.66566,-1.59798 0.56428,-1.80156 -0.0306,-0.0614 -0.19659,-0.11164 -0.36894,-0.11164 -0.25372,0 -0.32546,0.044 -0.37698,0.23106 -0.10977,0.39839 -0.53199,1.19732 -0.63278,1.19732 -0.053,0 -0.0654,-0.10398 -0.0275,-0.23106 0.0379,-0.12709 0.0995,-0.44847 0.13689,-0.7142 l 0.0681,-0.48312 h -1.00912 -1.00913 l 0.0564,0.52514 c 0.031,0.28882 0.0915,0.61021 0.13444,0.71419 0.0429,0.10398 0.033,0.18905 -0.022,0.18905 -0.14832,0 -0.56677,-0.70682 -0.64682,-1.09259 -0.0651,-0.31333 -0.0938,-0.33579 -0.43092,-0.33579 -0.19867,0 -0.39024,0.0362 -0.42567,0.0804 -0.0976,0.12176 0.23606,1.13662 0.50601,1.53888 0.13114,0.19542 0.27537,0.55844 0.32053,0.80672 0.0586,0.322 0.16827,0.52073 0.38266,0.69318 0.21739,0.17486 0.25376,0.24177 0.13149,0.24177 -0.28148,0 -0.73456,-0.4197 -0.80387,-0.74461 -0.0359,-0.16811 -0.18002,-0.51363 -0.32036,-0.7678 -0.31706,-0.57418 -0.60102,-1.31345 -0.60102,-1.5647 0,-0.1044 -0.0533,-0.21524 -0.11852,-0.24629 -0.2981,-0.14198 -0.26308,0.16154 0.12173,1.05481 0.22894,0.53143 0.81738,1.94931 1.30764,3.15082 1.38203,3.38701 1.37808,3.37816 1.46921,3.30346 0.0178,-0.0147 0.37473,-0.8206 0.79309,-1.79106 z m -0.49644,-0.26897 c 0.0198,-0.49946 0.0814,-0.81173 0.17405,-0.88222 0.1184,-0.0901 0.1302,0.0225 0.0678,0.64706 -0.10456,1.04566 -0.28077,1.21705 -0.24182,0.23516 z m -0.94415,-0.0599 c -0.29302,-0.65143 -0.31766,-0.97349 -0.0745,-0.97349 0.10177,0 0.51728,1.57229 0.43272,1.63745 -0.0243,0.0188 -0.18556,-0.28001 -0.35826,-0.66396 z m 0.51144,0.30143 c -0.16086,-0.52817 -0.17433,-1.09844 -0.0302,-1.27422 0.22335,-0.27223 0.31114,0.0514 0.23922,0.88152 l -0.0728,0.84023 z m -0.29983,-1.66852 c -0.40522,-0.0801 -0.90956,-0.29088 -0.96572,-0.40366 -0.0419,-0.0841 0.0172,-0.0979 0.23689,-0.055 0.38253,0.0746 1.96046,0.0511 2.30978,-0.0344 0.24937,-0.0611 0.25933,-0.0543 0.11697,0.0795 -0.31907,0.29967 -1.19491,0.51304 -1.69792,0.41364 z m -0.65965,-1.32349 c -0.26451,-0.31111 -0.13914,-0.43463 0.14283,-0.14072 0.13339,0.13904 0.19583,0.27453 0.13898,0.3016 -0.0567,0.027 -0.18359,-0.0453 -0.28181,-0.16088 z m 1.65773,0.14164 c -0.0278,-0.0347 0.0672,-0.17647 0.21109,-0.3151 0.24155,-0.23266 0.26171,-0.23796 0.26221,-0.069 0,0.10072 -0.0766,0.24246 -0.1708,0.31507 -0.19389,0.14943 -0.23117,0.15793 -0.3025,0.069 z m -4.57233,-3.24614 c 0.019,-0.0147 -0.0885,-0.30644 -0.23912,-0.64836 -0.15057,-0.34191 -0.27411,-0.63879 -0.27452,-0.65971 0,-0.0209 -0.19611,0.10894 -0.43488,0.28861 -0.56622,0.42608 -0.68921,0.32363 -0.16989,-0.14151 0.34056,-0.30504 0.39409,-0.40513 0.34471,-0.6446 -0.0322,-0.15591 -0.0843,-0.30336 -0.11579,-0.32766 -0.0315,-0.0243 -0.46293,0.0756 -0.95869,0.22213 -0.49573,0.14645 -1.2448,0.29914 -1.66457,0.3393 -0.41977,0.0401 -1.09651,0.17641 -1.50387,0.3028 -0.82427,0.25575 -1.06522,0.21602 -0.56772,-0.0936 0.4847,-0.30167 1.15368,-0.53234 1.6983,-0.58558 1.85961,-0.18181 2.99997,-0.66812 2.62137,-1.11789 -0.0798,-0.0949 -0.20307,-0.0771 -0.6862,0.0991 -0.32387,0.11807 -0.91794,0.27349 -1.32013,0.34537 -0.40218,0.0719 -0.91328,0.1893 -1.13576,0.26094 -0.40552,0.13057 -1.38302,0.66353 -1.74676,0.95238 -0.53991,0.42875 -1.51524,0.95105 -1.93913,1.03842 -0.26239,0.0541 -0.45256,0.12889 -0.42261,0.16625 0.03,0.0374 -0.0956,0.068 -0.27905,0.068 -0.53555,0 -0.38934,-0.12463 0.4407,-0.37559 0.66784,-0.20192 0.94249,-0.35838 1.99902,-1.13877 1.32565,-0.97918 1.69745,-1.16111 2.79961,-1.36993 0.76593,-0.14512 1.55228,-0.38618 1.87104,-0.5736 0.18295,-0.10757 0.18356,-0.13622 0.0115,-0.53348 -0.10003,-0.23089 -0.1953,-0.43248 -0.2117,-0.44797 -0.0164,-0.0155 -0.38955,0.17616 -0.8292,0.42588 -1.12426,0.63858 -2.83365,1.60015 -4.07274,2.291 -0.58017,0.32348 -1.55293,0.87172 -2.16168,1.21831 l -1.10679,0.63018 0.65419,0.0421 c 0.68412,0.0439 9.34008,0.0142 9.40041,-0.0323 z m -7.92849,-0.22992 c 0.14991,-0.0459 0.48908,-0.16642 0.75371,-0.26773 0.36908,-0.14132 0.49234,-0.15856 0.52921,-0.074 0.0369,0.0847 0.096,0.0767 0.25549,-0.0345 0.11408,-0.0796 0.24391,-0.11647 0.28853,-0.082 0.10564,0.0816 -0.50448,0.48661 -0.66686,0.44266 -0.0684,-0.0185 -0.10899,-0.0989 -0.0903,-0.17856 0.0289,-0.12284 -0.039,-0.11192 -0.4457,0.0717 -0.26384,0.11916 -0.57353,0.21426 -0.68818,0.21133 -0.16695,-0.004 -0.15417,-0.0219 0.0641,-0.0889 z m 1.63546,0.0189 c 0,-0.0956 0.73562,-0.59686 0.87604,-0.59686 0.0579,0 0.10656,0.0661 0.10816,0.14704 0.002,0.11003 0.0777,0.0781 0.29984,-0.12679 0.31268,-0.28839 0.45998,-0.34182 0.46116,-0.16729 8.8e-4,0.16875 -0.79399,0.65514 -0.99188,0.60675 -0.0976,-0.0239 -0.23937,0.0141 -0.31515,0.0845 -0.14992,0.13921 -0.43817,0.17382 -0.43817,0.0526 z m 1.20435,0.0123 c 0.003,-0.0347 0.27131,-0.28898 0.5968,-0.56517 0.46093,-0.3911 0.62079,-0.47979 0.72289,-0.4011 0.10211,0.0787 -0.002,0.20365 -0.47118,0.56515 -0.5456,0.42045 -0.86193,0.57 -0.84851,0.40112 z m 0.97626,-0.089 c 0,-0.13968 1.04935,-0.96478 1.18324,-0.93038 0.10071,0.0259 0.0769,0.0913 -0.0858,0.23587 -0.12385,0.11006 -0.22518,0.21321 -0.22518,0.22924 0,0.10234 0.20922,-0.0263 0.66759,-0.41054 0.35205,-0.2951 0.56065,-0.41187 0.63432,-0.3551 0.0737,0.0567 0.059,0.15992 -0.0445,0.31366 -0.0848,0.12598 -0.11211,0.22906 -0.0607,0.22906 0.0515,0 0.1776,-0.1696 0.28035,-0.37689 0.21895,-0.44185 0.43893,-0.61678 0.6099,-0.48502 0.18273,0.14081 0.01,0.41092 -0.54082,0.84403 -0.60941,0.47947 -1.23596,0.734 -1.51924,0.61717 -0.1342,-0.0554 -0.25809,-0.0435 -0.40371,0.0385 -0.23096,0.13015 -0.49551,0.15703 -0.49551,0.0504 z m -6.26927,-0.10119 c 0.29983,-0.16824 0.91313,-0.51464 1.36289,-0.76979 1.18552,-0.67254 3.86423,-2.1625 5.53861,-3.08069 0.79748,-0.43731 1.42955,-0.83664 1.40457,-0.88738 -0.025,-0.0508 -0.5943,-1.45341 -1.26518,-3.11705 -1.62683,-4.03417 -1.97663,-4.84441 -2.07858,-4.81449 -0.0473,0.0139 -0.52931,0.31668 -1.0712,0.6729 -1.98539,1.30513 -3.72904,3.35665 -4.52881,5.32843 -0.56958,1.40429 -0.67069,1.97311 -0.67019,3.77047 0,1.59332 0.0502,1.9723 0.39456,3.00633 0.11706,0.35151 0.0865,0.35514 0.91333,-0.10873 z m 11.39371,0.34194 c 0,-0.0436 -0.12111,-0.18542 -0.26913,-0.31509 -0.22183,-0.19431 -0.26973,-0.20893 -0.27257,-0.0832 -0.005,0.22345 0.19824,0.47762 0.382,0.47762 0.0878,0 0.1597,-0.0357 0.1597,-0.0794 z m 1.58095,-0.23498 c 0.11994,-0.17263 0.30902,-0.32729 0.42018,-0.3437 0.17953,-0.0265 0.19368,0.008 0.1267,0.31409 l -0.0754,0.34393 h 0.88656 0.88655 l -0.032,-0.30624 c -0.0461,-0.44161 0.2047,-0.46199 0.43509,-0.0354 0.17369,0.32163 0.21448,0.34481 0.56871,0.32304 0.29423,-0.0181 0.37427,-0.0571 0.34958,-0.17051 -0.0176,-0.0809 0.0174,-0.14703 0.078,-0.14703 0.42689,0 1.55434,-1.25607 1.87108,-2.08452 0.0761,-0.19912 0.22169,-0.39638 0.32345,-0.43835 0.10177,-0.042 0.24254,-0.2523 0.31282,-0.46738 0.10646,-0.32583 0.10091,-0.41393 -0.0332,-0.52816 -0.26982,-0.22976 -0.71145,-1.0373 -0.78662,-1.43833 -0.0873,-0.46571 -0.12401,-0.50165 -0.98838,-0.96731 -0.78597,-0.4234 -0.73249,-0.44231 -1.01105,0.35758 -0.0684,0.1964 -0.16621,0.35709 -0.21736,0.35709 -0.20211,0 -0.2204,-0.29664 -0.0476,-0.77129 l 0.18139,-0.49819 -0.37037,-0.24407 c -0.20371,-0.13425 -0.40104,-0.24562 -0.43853,-0.2475 -0.0375,-0.002 -0.0976,0.11002 -0.13356,0.24866 -0.0856,0.32981 -0.39796,0.34299 -0.39796,0.0168 0,-0.12938 0.0532,-0.27626 0.11825,-0.32638 0.085,-0.0655 0.0103,-0.15455 -0.26522,-0.31654 -0.36984,-0.21739 -0.39343,-0.22038 -0.66341,-0.084 -0.23838,0.12038 -0.27993,0.20332 -0.27993,0.5588 0,0.4411 -0.20875,0.5377 -0.3271,0.15139 -0.0857,-0.27959 -0.21929,-0.28128 -0.64697,-0.008 l -0.37438,0.23909 0.18359,0.37047 c 0.2252,0.45443 0.23988,0.82696 0.0325,0.82696 -0.1705,0 -0.50317,-0.35232 -0.50317,-0.53289 0,-0.0653 -0.066,-0.16092 -0.1467,-0.21252 -0.11301,-0.0723 -0.28828,-0.0157 -0.76322,0.2464 l -0.61652,0.34022 -0.003,0.47851 c -0.003,0.53708 -0.25271,1.03829 -0.74974,1.50298 -0.33594,0.31407 -0.33752,0.47947 -0.007,0.69797 0.10498,0.0694 0.27367,0.35063 0.37489,0.62515 0.26051,0.70651 0.84188,1.55169 1.30072,1.89099 0.21539,0.15925 0.39159,0.35776 0.39159,0.44112 0,0.11917 0.0874,0.15151 0.40887,0.15134 0.36046,0 0.43468,-0.0374 0.62692,-0.31409 z m -0.53611,-0.42092 c -0.1048,-0.0808 0.28094,-0.35706 0.4985,-0.35706 0.31697,0 0.23459,0.22665 -0.11667,0.32102 -0.17479,0.0469 -0.34663,0.0632 -0.38183,0.036 z m 3.28914,-0.1629 c -0.10495,-0.0211 -0.1908,-0.0735 -0.1908,-0.1163 0,-0.12478 0.39664,-0.0897 0.54515,0.0481 0.14495,0.1346 0.0584,0.15124 -0.35435,0.0682 z m -2.23205,-0.20439 c -0.0673,-0.0519 -0.0987,-0.14174 -0.0698,-0.19977 0.0333,-0.067 -0.0862,-0.12555 -0.32784,-0.16048 -0.2092,-0.0302 -0.49425,-0.13257 -0.63346,-0.22738 -0.22308,-0.15196 -0.22724,-0.1653 -0.035,-0.11255 0.58707,0.16113 0.7087,0.14969 0.7087,-0.0666 0,-0.24002 -0.38026,-0.6513 -0.60217,-0.6513 -0.20043,0 -0.36355,0.23779 -0.2972,0.4333 0.0419,0.12343 0.0112,0.14489 -0.14222,0.0995 -0.15459,-0.0457 -0.18021,-0.0269 -0.12217,0.0897 0.0404,0.0811 0.0735,0.16254 0.0735,0.18093 0,0.0184 0.20853,0.11579 0.46339,0.21644 0.25486,0.10071 0.40536,0.19825 0.33448,0.21687 -0.36066,0.0947 -1.11862,-0.44156 -1.43513,-1.01541 -0.1291,-0.23405 -0.12492,-0.2393 0.14819,-0.18648 0.43832,0.0847 0.5142,-0.0206 0.22542,-0.31304 -0.14548,-0.14734 -0.30066,-0.38133 -0.34482,-0.51997 l -0.0803,-0.25207 0.50412,0.33609 c 0.27724,0.18485 0.67536,0.44232 0.8847,0.57218 0.39801,0.24687 0.88248,0.91486 1.00185,1.38133 0.0709,0.27723 -0.0323,0.34982 -0.25415,0.17882 z m 1.49609,-0.0589 c 0,-0.19102 0.36467,-0.83859 0.57669,-1.02405 0.13257,-0.11596 0.61625,-0.42832 1.07485,-0.69412 0.45858,-0.2658 0.86181,-0.53957 0.89608,-0.60836 0.0343,-0.0688 0.11183,-0.12508 0.1724,-0.12508 0.14612,0 -0.0766,0.39294 -0.39431,0.69545 -0.28791,0.27417 -0.22808,0.48085 0.13915,0.48085 0.1435,0 0.26091,0.022 0.26091,0.0488 0,0.0689 -0.75867,0.8035 -1.0125,0.98039 -0.11605,0.0809 -0.31595,0.14557 -0.44423,0.14375 -0.19406,-0.003 -0.17829,-0.0221 0.0938,-0.11532 0.38685,-0.13249 0.76318,-0.43658 0.86709,-0.7006 0.10886,-0.27666 -0.12218,-0.23464 -0.3185,0.0579 -0.18662,0.27811 -0.56826,0.51256 -0.81816,0.50261 -0.14601,-0.006 -0.14638,-0.0123 -0.003,-0.0527 0.34289,-0.0966 0.6542,-0.39518 0.6542,-0.62748 0,-0.33672 -0.42959,-0.32551 -0.80805,0.0211 -0.30429,0.27868 -0.35489,0.45319 -0.15851,0.54672 0.0799,0.0381 0.0317,0.0983 -0.13628,0.17002 -0.14303,0.0611 -0.21725,0.11243 -0.16493,0.11406 0.0524,0.002 0.034,0.0597 -0.0406,0.12901 -0.14453,0.13421 -0.43612,0.1723 -0.43612,0.057 z m 0.76322,-0.18302 c 0,-0.0462 0.049,-0.084 0.10903,-0.084 0.06,0 0.10904,0.0378 0.10904,0.084 0,0.0462 -0.0491,0.084 -0.10904,0.084 -0.06,0 -0.10903,-0.0378 -0.10903,-0.084 z m -3.08103,-0.59863 c -0.20085,-0.0867 -0.26302,-0.32562 -0.0847,-0.32562 0.10818,0 0.37782,0.32797 0.31159,0.37899 -0.0204,0.0157 -0.12244,-0.008 -0.22689,-0.0534 z m 3.40291,-0.066 c 0.14759,-0.21251 0.36261,-0.23283 0.31178,-0.0294 -0.0201,0.0804 -0.12587,0.15934 -0.23509,0.17555 -0.17008,0.0253 -0.18111,0.004 -0.0767,-0.14608 z m -2.31955,-0.64478 c -0.0424,-0.0964 -0.42265,-0.49333 -0.84492,-0.88222 -1.25155,-1.15266 -1.72635,-1.88336 -1.50893,-2.32221 0.11159,-0.22525 0.121,-0.2277 0.271,-0.0703 0.0855,0.0897 0.15541,0.2492 0.15541,0.35446 0,0.11787 0.0523,0.17637 0.13629,0.15235 0.0856,-0.0245 0.247,0.17181 0.43392,0.52777 0.1637,0.31173 0.49112,0.747 0.72761,0.96726 0.46679,0.43476 0.82025,1.04312 0.75056,1.29183 -0.0403,0.14366 -0.05,0.14215 -0.12094,-0.019 z m 1.12543,-0.18854 c 0,-0.32464 0.49681,-0.87608 1.3669,-1.51717 0.73829,-0.544 1.03176,-0.9184 1.03176,-1.31627 0,-0.13909 0.0501,-0.20647 0.13629,-0.18358 0.0856,0.0228 0.13481,0.19383 0.13229,0.45975 -0.005,0.54635 -0.37836,0.97371 -1.3975,1.60036 -0.51958,0.31949 -0.81455,0.57372 -0.96041,0.82783 -0.24588,0.42838 -0.30933,0.45486 -0.30933,0.12908 z m -0.70312,-0.51156 c -0.0379,-0.0472 -0.11248,-0.38009 -0.16576,-0.73963 -0.0532,-0.35954 -0.14979,-0.76094 -0.21452,-0.89199 -0.21844,-0.44233 0.13998,-0.20104 0.37814,0.25455 l 0.22151,0.42375 0.30287,-0.41806 c 0.16659,-0.22994 0.3195,-0.40456 0.33981,-0.38805 0.0426,0.0347 -0.22807,0.96643 -0.42221,1.45313 -0.13404,0.33603 -0.31496,0.46202 -0.43984,0.3063 z m 3.71562,2.9338 c 0.0803,-0.20795 0.14681,-0.39113 0.14773,-0.40706 8.7e-4,-0.0159 -0.17008,0.12945 -0.37996,0.32304 -0.44005,0.4059 -0.47654,0.52672 -0.14773,0.48897 0.17147,-0.0197 0.27286,-0.12775 0.37996,-0.40495 z m 10.18311,0.18812 c -0.49351,-0.29988 -5.78973,-3.26903 -6.9572,-3.9003 -0.76424,-0.41325 -0.91225,-0.46576 -0.96286,-0.34158 -0.0329,0.0807 -0.10551,0.23464 -0.16136,0.34207 -0.0559,0.10745 -0.0752,0.22817 -0.0431,0.26826 0.0322,0.0401 0.86181,0.37376 1.84365,0.74148 1.56117,0.58468 1.90708,0.75282 2.75676,1.33988 0.95904,0.66266 1.94694,1.20431 2.48289,1.36134 0.15131,0.0443 0.27509,0.11934 0.27509,0.16669 0,0.1561 -0.75852,0.0898 -1.41739,-0.12395 -0.78067,-0.25321 -0.79607,-0.25412 -0.70871,-0.0421 0.0381,0.0924 0.0382,0.16805 8e-5,0.16805 -0.12474,0 -0.82509,-0.44251 -0.7689,-0.48581 0.0302,-0.0233 0.13338,0.008 0.22935,0.0694 0.14191,0.0908 0.19071,0.0914 0.2614,0.003 0.0685,-0.0854 0.26122,-0.062 0.9095,0.11043 1.09014,0.28996 1.14083,0.27526 0.29534,-0.0856 -0.38979,-0.16636 -1.02762,-0.49997 -1.41741,-0.74135 -0.92371,-0.57204 -1.44694,-0.81375 -2.18062,-1.00735 -0.32981,-0.0871 -1.08797,-0.34127 -1.68478,-0.56497 -0.59681,-0.22369 -1.10093,-0.40671 -1.12026,-0.40671 -0.0439,0 -0.22544,0.3642 -0.30811,0.61804 -0.0489,0.15034 0.003,0.21351 0.24444,0.29949 0.60095,0.21367 1.29671,0.34105 1.88744,0.34558 0.66661,0.005 1.32233,0.15694 1.64268,0.38035 0.34301,0.23922 0.24131,0.30196 -0.19641,0.12117 -0.3079,-0.12717 -0.61528,-0.16821 -1.26008,-0.16821 -0.9792,0 -1.74722,-0.12438 -2.17034,-0.35148 -0.28889,-0.15506 -0.29625,-0.15492 -0.40886,0.007 -0.1749,0.25183 -0.14051,0.42155 0.16749,0.82657 0.33342,0.43843 0.25037,0.58687 -0.13518,0.24165 -0.31804,-0.28477 -0.38327,-0.24723 -0.64012,0.36829 -0.10605,0.25417 -0.21546,0.50939 -0.24312,0.56716 -0.0398,0.0831 1.01692,0.10483 5.05854,0.10409 l 5.10885,-9.2e-4 z m -6.49308,-0.20486 c -0.20992,-0.12724 -0.32284,-0.15451 -0.35283,-0.0851 -0.0805,0.18618 -0.40232,0.10571 -0.8523,-0.21314 -0.52327,-0.37079 -0.87146,-0.7577 -0.75847,-0.84284 0.0441,-0.0333 0.26593,0.1003 0.49296,0.29669 0.46274,0.40029 0.59721,0.44678 0.48602,0.16805 l -0.0754,-0.18905 0.27438,0.1952 c 0.20095,0.14296 0.28811,0.16545 0.3257,0.084 0.0282,-0.0612 0.0708,-0.0922 0.0947,-0.0692 0.81889,0.79426 0.93347,0.99986 0.36529,0.65544 z m 1.3525,-0.14292 c -0.26258,-0.18025 -0.44041,-0.35684 -0.3952,-0.39244 0.0452,-0.0356 0.20283,0.0226 0.35027,0.12935 0.14743,0.10673 0.37642,0.23607 0.50885,0.2874 0.13245,0.0514 0.26103,0.14061 0.28575,0.19838 0.0893,0.20856 -0.28215,0.0982 -0.74967,-0.22269 z m 0.96431,0.0808 c -0.2091,-0.14148 -0.43504,-0.25724 -0.50208,-0.25724 -0.0671,0 -0.1219,-0.0378 -0.1219,-0.084 0,-0.1636 0.29619,-0.0804 0.71779,0.20166 0.23487,0.15713 0.39539,0.3107 0.3567,0.34127 -0.0387,0.0305 -0.2414,-0.0602 -0.45051,-0.20166 z m -1.75612,-0.17347 c -0.37576,-0.32053 -0.49049,-0.50511 -0.31252,-0.50284 0.0691,8.3e-4 0.34791,0.28702 0.71412,0.733 0.16918,0.20602 -0.0119,0.10225 -0.4016,-0.23016 z m 7.44338,0.35734 c 0.55973,-1.68125 0.62795,-3.91109 0.17088,-5.58551 -0.63738,-2.33499 -2.24657,-4.55229 -4.5342,-6.24761 -0.8186,-0.60666 -1.36852,-0.92962 -1.46124,-0.85819 -0.0284,0.0219 -0.42136,0.92502 -0.87322,2.00691 -0.45186,1.08191 -1.20789,2.86629 -1.6801,3.96529 l -0.85852,1.99819 0.56307,0.31717 c 0.30969,0.17443 1.2745,0.71363 2.14402,1.19819 0.86952,0.48457 2.28449,1.27644 3.14434,1.75971 2.797,1.57205 3.12385,1.75128 3.2025,1.75614 0.0426,0.003 0.12478,-0.13699 0.18247,-0.31029 z m -19.80409,-4.1732 c 0.0682,-0.0963 0.15456,-0.35252 0.1918,-0.56956 l 0.0677,-0.39462 -0.28675,0.13053 c -0.73154,0.33301 -0.75552,0.36648 -0.5821,0.81233 0.13451,0.34581 0.18197,0.39024 0.32151,0.30098 0.09,-0.0575 0.21954,-0.18342 0.28779,-0.27966 z m 9.85561,-0.11027 c 0.0761,-0.17068 0.12838,-0.31329 0.11609,-0.31693 -0.0123,-0.004 -0.20956,-0.11287 -0.43838,-0.24276 -0.22881,-0.12987 -0.44056,-0.21724 -0.47055,-0.19413 -0.0811,0.0625 0.17115,0.74374 0.35901,0.96951 0.19125,0.22981 0.24758,0.20181 0.43383,-0.21569 z m -10.16103,-1.08256 c 0.48712,-0.28662 0.51202,-0.32045 0.44343,-0.60224 -0.14947,-0.61396 -0.50926,-1.17546 -1.25002,-1.95082 -0.7418,-0.77645 -1.37525,-1.57694 -1.29613,-1.63791 0.041,-0.0315 1.015,0.88378 2.0811,1.95575 0.34467,0.34657 0.7315,0.85165 0.8596,1.12241 0.12809,0.27074 0.25608,0.49226 0.28438,0.49226 0.0283,0 0.2548,-0.12072 0.50329,-0.26828 0.2485,-0.14754 0.47101,-0.27892 0.49447,-0.29194 0.10022,-0.0556 -0.88929,-0.90618 -2.294,-1.9719 -0.83063,-0.63015 -1.51022,-1.19361 -1.51022,-1.25211 0,-0.0585 0.28497,0.0979 0.63329,0.34754 0.34829,0.24965 1.10755,0.75 1.68721,1.11189 0.57968,0.36188 1.25607,0.84401 1.50307,1.07136 l 0.44913,0.41339 0.31683,-0.14423 c 0.27135,-0.12353 0.31685,-0.19593 0.31685,-0.50422 0,-0.19799 -0.049,-0.35999 -0.10902,-0.35999 -0.06,0 -0.10904,0.0899 -0.10904,0.19977 0,0.10987 -0.0728,0.24632 -0.16174,0.30322 -0.13418,0.0859 -0.18062,0.0651 -0.27257,-0.12122 -0.0609,-0.12357 -0.11084,-0.3095 -0.11084,-0.41319 0,-0.10368 -0.0761,-0.26192 -0.16919,-0.35162 -0.16684,-0.16083 -0.16839,-0.16076 -0.11152,0.005 0.0709,0.20637 -0.0872,0.42052 -0.25226,0.3419 -0.0666,-0.0318 -0.12122,-0.16894 -0.12122,-0.30484 0,-0.13591 -0.049,-0.24711 -0.10902,-0.24711 -0.06,0 -0.0968,0.0426 -0.0817,0.0946 0.015,0.052 -0.0341,0.11185 -0.10904,0.13304 -0.0842,0.0238 -0.13685,-0.0365 -0.13777,-0.15755 -0.002,-0.28432 -0.11791,-0.57415 -0.2293,-0.57415 -0.053,0 -0.0963,0.0756 -0.0963,0.16805 0,0.0924 -0.0501,0.16804 -0.11136,0.16804 -0.1022,0 -0.1607,-0.0859 -0.44823,-0.65855 l -0.0986,-0.19643 -0.20504,0.19511 -0.20502,0.19514 -0.25081,-0.39781 c -0.25257,-0.40063 -0.35601,-0.46826 -0.47991,-0.31378 -0.13424,0.16739 -0.28907,0.0766 -0.50187,-0.29407 -0.11937,-0.20795 -0.26252,-0.3781 -0.3181,-0.3781 -0.13615,0 -1.11771,-0.76136 -1.04941,-0.814 0.10405,-0.0802 0.50786,0.0708 0.61958,0.23167 0.0621,0.0894 0.28268,0.21718 0.49028,0.28402 0.20758,0.0668 0.43271,0.21504 0.50027,0.32931 0.0675,0.11427 0.18126,0.19048 0.25267,0.16937 0.0714,-0.0211 0.2738,0.0656 0.44979,0.19284 0.176,0.12718 0.39978,0.22148 0.49728,0.20958 0.0975,-0.0119 0.29376,0.0849 0.43612,0.21514 0.14237,0.13024 0.41998,0.28819 0.6169,0.35097 0.19693,0.0628 0.44224,0.19432 0.54515,0.29227 0.10291,0.098 0.31831,0.24308 0.47868,0.32249 0.16036,0.0794 0.32378,0.22258 0.36314,0.31816 0.0508,0.12318 0.13123,0.15921 0.2764,0.1237 0.19878,-0.0486 0.38962,0.0717 0.79804,0.50292 0.1415,0.14942 0.1849,0.15423 0.44051,0.0488 0.15594,-0.0643 0.28159,-0.13891 0.2792,-0.16575 -0.003,-0.0269 -1.02044,-0.60596 -2.26238,-1.28691 -1.24193,-0.68093 -3.03585,-1.67587 -3.98649,-2.21096 -0.95062,-0.53509 -1.74514,-0.96 -1.76558,-0.94424 -0.0204,0.0158 0.3441,0.93505 0.81011,2.04291 0.46597,1.10786 1.13592,2.72322 1.48874,3.5897 0.35283,0.86649 0.67316,1.57542 0.71185,1.57542 0.0387,0 0.3026,-0.13666 0.58645,-0.3037 z m 10.84569,-0.55754 c 0.33449,-0.81807 2.59702,-6.12172 2.7062,-6.34366 0.10488,-0.21329 -0.19167,-0.0893 -1.34884,0.56396 -2.00169,1.12998 -4.29618,2.41532 -5.37098,3.00874 -1.62157,0.89529 -1.51807,0.81254 -1.27503,1.0195 0.28133,0.23955 0.44934,0.22118 0.60372,-0.066 0.0716,-0.13316 0.29832,-0.31191 0.50386,-0.39722 0.20556,-0.0853 0.37374,-0.19133 0.37374,-0.23561 0,-0.11954 0.45343,-0.46943 0.60836,-0.46943 0.0738,0 0.33977,-0.13234 0.59098,-0.29408 0.25122,-0.16175 0.50671,-0.29408 0.56777,-0.29408 0.061,0 0.26493,-0.0965 0.45306,-0.21441 0.92778,-0.58155 1.29755,-0.79385 1.38269,-0.79385 0.13908,0 1.00419,-0.46371 1.24044,-0.66489 0.27619,-0.23517 0.55201,-0.24033 0.39018,-0.007 -0.0642,0.0924 -0.178,0.16805 -0.25292,0.16805 -0.0749,0 -0.22313,0.11342 -0.32941,0.25206 -0.10627,0.13863 -0.25177,0.25231 -0.32334,0.2526 -0.0716,0 -0.21932,0.12125 -0.32833,0.2688 -0.1546,0.20929 -0.21925,0.24205 -0.2939,0.14895 -0.0526,-0.0656 -0.11426,-0.10153 -0.13693,-0.0798 -0.0227,0.0217 -0.14912,0.16003 -0.28095,0.30725 -0.15093,0.16853 -0.34957,0.27745 -0.5363,0.29407 -0.1967,0.0175 -0.34463,0.104 -0.43922,0.2568 -0.17465,0.28213 -0.56769,0.4737 -0.56769,0.2767 0,-0.25355 -0.2294,-0.1225 -0.43613,0.24911 -0.2067,0.37162 -0.37629,0.47439 -0.46072,0.2792 -0.068,-0.15709 -0.28645,-0.003 -0.53551,0.37768 -0.29205,0.44638 -0.3042,0.45522 -0.42255,0.30765 -0.14161,-0.17657 -0.31131,-0.0146 -0.34906,0.33318 -0.0258,0.23753 0.0204,0.30977 0.26725,0.41873 0.29655,0.13087 0.30159,0.12887 0.81136,-0.3202 0.28211,-0.24854 0.8838,-0.67486 1.33706,-0.94737 0.45325,-0.27251 1.23499,-0.80638 1.7372,-1.18636 0.6873,-0.52005 0.86254,-0.62037 0.70869,-0.40572 -0.18732,0.26135 -0.56883,0.56199 -3.11048,2.45129 -0.4705,0.34974 -0.85548,0.67758 -0.85548,0.72854 0,0.051 0.28074,0.24613 0.62386,0.43371 l 0.62384,0.34105 0.17157,-0.48144 c 0.0944,-0.2648 0.3097,-0.6766 0.47852,-0.9151 0.31298,-0.44218 2.07804,-2.045 2.25199,-2.045 0.0527,0 -0.36526,0.52503 -0.92877,1.16673 -1.02157,1.16333 -1.36749,1.75396 -1.36749,2.3349 0,0.22978 0.0789,0.32236 0.4525,0.53091 0.24886,0.13892 0.5111,0.25259 0.58275,0.25259 0.0716,0 0.28876,-0.38755 0.48244,-0.86124 z m -5.17911,-2.59912 c 0.42467,-0.23956 1.25658,-0.69935 1.84869,-1.02177 0.59213,-0.32242 1.28797,-0.70303 1.54633,-0.84578 0.25837,-0.14276 0.87784,-0.48356 1.37661,-0.75732 0.49878,-0.27376 1.46614,-0.81732 2.1497,-1.2079 l 1.24284,-0.71016 -0.7522,-0.3665 c -1.46266,-0.71267 -3.63078,-1.33184 -5.54954,-1.5848 -3.44562,-0.45428 -6.98926,0 -10.17954,1.30525 -1.16161,0.47523 -1.42326,0.62805 -1.26402,0.73826 0.0573,0.0397 0.64406,0.37331 1.30369,0.74129 0.65964,0.36799 1.73912,0.97303 2.39884,1.34454 1.19122,0.67081 1.83005,1.02328 2.56206,1.4136 0.20989,0.1119 0.84771,0.4679 1.41739,0.79109 0.56969,0.32319 1.05633,0.58945 1.08142,0.59169 0.0251,0.002 0.39307,-0.19193 0.81773,-0.43149 z m -17.82599,11.47375 c -0.008,-0.0704 -0.0271,-0.34113 -0.0773,-1.09658 -0.0365,-0.5486 -0.21607,-0.63022 -1.31905,-0.5994 l -0.93941,0.0263 -0.0326,-0.38767 -0.0326,-0.38769 1.22092,0.0306 c 0.68095,0.0171 1.28609,0.0724 1.36825,0.1249 0.22339,0.14287 0.20923,2.11403 -0.0162,2.25823 -0.09,0.0575 -0.1673,0.0716 -0.17191,0.0312 z m 33.1534,-0.51442 c 0,-0.0347 0.11014,-0.22371 0.24513,-0.42011 l 0.24544,-0.35709 h 1.11775 c 0.81692,0 1.12007,-0.0283 1.12637,-0.10503 0.007,-0.084 0.0197,-0.084 0.0636,0 0.0303,0.0577 0.12451,0.10503 0.20946,0.10503 0.21445,0 0.19719,0.0563 -0.14538,0.47417 l -0.29984,0.36575 h -1.2811 c -0.70462,7e-5 -1.28124,-0.0282 -1.28142,-0.0629 z m 2.7395,-1.36399 c -0.15492,-0.39843 -0.30291,-0.4674 -1.13851,-0.5306 -0.7168,-0.0542 -0.94651,-0.16109 -0.94651,-0.44044 0,-0.318 0.1181,-0.45871 0.38496,-0.45871 0.51726,0 1.37956,0.20509 1.63783,0.38954 0.23449,0.16748 0.26686,0.26243 0.26686,0.78276 0,0.32569 -0.0168,0.59217 -0.0373,0.59217 -0.0205,0 -0.0958,-0.15062 -0.16738,-0.33472 z m -7.95993,-14.95927 c -0.23968,-0.61186 -0.24936,-0.82036 -0.056,-1.20856 0.0518,-0.10402 -0.006,-0.13384 -0.25875,-0.13384 -0.37885,0 -0.51633,-0.10667 -0.62022,-0.48124 -0.0957,-0.3451 0.0185,-0.63835 0.22489,-0.57732 0.0853,0.0252 0.38755,0.0699 0.67158,0.0991 0.28405,0.0293 0.55325,0.0703 0.59822,0.0912 0.045,0.0208 0.0818,0.22477 0.0818,0.45309 0,0.36129 -0.0288,0.41516 -0.22148,0.41516 -0.32486,0 -0.38544,0.22911 -0.17902,0.67697 0.18616,0.40394 0.24907,1.21389 0.0998,1.28497 -0.0454,0.0216 -0.19877,-0.25715 -0.34076,-0.61954 z m -22.84175,0.43819 c -0.0393,-0.0489 0.009,-0.24279 0.10595,-0.43069 0.17173,-0.33077 0.19347,-0.34164 0.68343,-0.34171 l 0.50605,-9e-5 0.006,-0.46457 c 0.006,-0.49233 0.0153,-0.48463 -0.66001,-0.56196 -0.16339,-0.0187 -0.22519,-0.0985 -0.24652,-0.31835 -0.0446,-0.46006 0.0489,-0.50744 0.73183,-0.37092 0.7882,0.15756 0.84113,0.21007 0.62978,0.62471 -0.15495,0.30399 -0.15714,0.38786 -0.0192,0.73811 0.33689,0.85553 0.1324,1.1033 -0.96667,1.17128 -0.43477,0.0269 -0.72605,0.009 -0.77047,-0.0458 z"
       id="path2264" /></g></svg>
